<mxfile host="app.diagrams.net" modified="2023-11-30T13:23:30.289Z" agent="Mozilla/5.0 (Windows NT 10.0; Win64; x64) AppleWebKit/537.36 (KHTML, like Gecko) Chrome/119.0.0.0 Safari/537.36" etag="zlgXFocK0ePAgbmPx1lt" version="22.1.5" type="github">
  <diagram name="Page-1" id="k-r1SF7cAMHIW4UvjQLI">
    <mxGraphModel dx="568" dy="282" grid="1" gridSize="10" guides="1" tooltips="1" connect="1" arrows="1" fold="1" page="1" pageScale="1" pageWidth="850" pageHeight="1100" math="0" shadow="0">
      <root>
        <mxCell id="0" />
        <mxCell id="1" parent="0" />
        <mxCell id="nwgEMaBE80VrU-pPg7qg-1" value="&lt;font style=&quot;font-size: 10px;&quot;&gt;User&lt;/font&gt;" style="shape=umlActor;verticalLabelPosition=bottom;verticalAlign=top;html=1;outlineConnect=0;" vertex="1" parent="1">
          <mxGeometry x="400" y="200" width="30" height="60" as="geometry" />
        </mxCell>
        <mxCell id="nwgEMaBE80VrU-pPg7qg-2" value="&lt;font style=&quot;font-size: 8px;&quot;&gt;Register on the website&lt;/font&gt;" style="ellipse;whiteSpace=wrap;html=1;" vertex="1" parent="1">
          <mxGeometry x="375" y="100" width="80" height="60" as="geometry" />
        </mxCell>
        <mxCell id="nwgEMaBE80VrU-pPg7qg-3" value="&lt;font style=&quot;font-size: 8px;&quot;&gt;Add test result&lt;/font&gt;" style="ellipse;whiteSpace=wrap;html=1;" vertex="1" parent="1">
          <mxGeometry x="480" y="180" width="70" height="50" as="geometry" />
        </mxCell>
        <mxCell id="nwgEMaBE80VrU-pPg7qg-4" value="&lt;font style=&quot;font-size: 8px;&quot;&gt;Edit profile info&lt;/font&gt;" style="ellipse;whiteSpace=wrap;html=1;" vertex="1" parent="1">
          <mxGeometry x="270" y="180" width="70" height="50" as="geometry" />
        </mxCell>
        <mxCell id="nwgEMaBE80VrU-pPg7qg-5" value="&lt;font style=&quot;font-size: 8px;&quot;&gt;View profile info&lt;/font&gt;" style="ellipse;whiteSpace=wrap;html=1;" vertex="1" parent="1">
          <mxGeometry x="305" y="290" width="70" height="50" as="geometry" />
        </mxCell>
        <mxCell id="nwgEMaBE80VrU-pPg7qg-6" value="&lt;font style=&quot;font-size: 8px;&quot;&gt;Keep track of test results over time&lt;/font&gt;" style="ellipse;whiteSpace=wrap;html=1;" vertex="1" parent="1">
          <mxGeometry x="455" y="290" width="70" height="50" as="geometry" />
        </mxCell>
        <mxCell id="nwgEMaBE80VrU-pPg7qg-11" value="" style="endArrow=none;html=1;rounded=0;entryX=0;entryY=0.5;entryDx=0;entryDy=0;" edge="1" parent="1" target="nwgEMaBE80VrU-pPg7qg-3">
          <mxGeometry width="50" height="50" relative="1" as="geometry">
            <mxPoint x="440" y="220" as="sourcePoint" />
            <mxPoint x="490" y="220" as="targetPoint" />
          </mxGeometry>
        </mxCell>
        <mxCell id="nwgEMaBE80VrU-pPg7qg-12" value="" style="endArrow=none;html=1;rounded=0;exitX=1;exitY=0;exitDx=0;exitDy=0;" edge="1" parent="1" source="nwgEMaBE80VrU-pPg7qg-5">
          <mxGeometry width="50" height="50" relative="1" as="geometry">
            <mxPoint x="360" y="300" as="sourcePoint" />
            <mxPoint x="390" y="270" as="targetPoint" />
          </mxGeometry>
        </mxCell>
        <mxCell id="nwgEMaBE80VrU-pPg7qg-13" value="" style="endArrow=none;html=1;rounded=0;entryX=0;entryY=0;entryDx=0;entryDy=0;" edge="1" parent="1" target="nwgEMaBE80VrU-pPg7qg-6">
          <mxGeometry width="50" height="50" relative="1" as="geometry">
            <mxPoint x="440" y="270" as="sourcePoint" />
            <mxPoint x="510" y="200" as="targetPoint" />
          </mxGeometry>
        </mxCell>
        <mxCell id="nwgEMaBE80VrU-pPg7qg-14" value="" style="endArrow=none;html=1;rounded=0;exitX=1;exitY=0.5;exitDx=0;exitDy=0;" edge="1" parent="1" source="nwgEMaBE80VrU-pPg7qg-4">
          <mxGeometry width="50" height="50" relative="1" as="geometry">
            <mxPoint x="460" y="250" as="sourcePoint" />
            <mxPoint x="390" y="220" as="targetPoint" />
          </mxGeometry>
        </mxCell>
        <mxCell id="nwgEMaBE80VrU-pPg7qg-15" value="" style="endArrow=none;html=1;rounded=0;entryX=0.5;entryY=1;entryDx=0;entryDy=0;" edge="1" parent="1" target="nwgEMaBE80VrU-pPg7qg-2">
          <mxGeometry width="50" height="50" relative="1" as="geometry">
            <mxPoint x="415" y="190" as="sourcePoint" />
            <mxPoint x="510" y="200" as="targetPoint" />
          </mxGeometry>
        </mxCell>
      </root>
    </mxGraphModel>
  </diagram>
</mxfile>
